<?xml version="1.0" encoding="utf-8"?>
<!-- Generator: Adobe Illustrator 23.0.0, SVG Export Plug-In . SVG Version: 6.00 Build 0)  -->
<svg version="1.1" id="Capa_1" xmlns="http://www.w3.org/2000/svg" xmlns:xlink="http://www.w3.org/1999/xlink" x="0px" y="0px"
	 viewBox="0 0 189.8 121.4" style="enable-background:new 0 0 189.8 121.4;" xml:space="preserve">
<style type="text/css">
	.st0{fill:none;stroke:#00A195;stroke-miterlimit:10;}
	.st1{opacity:0.6;}
	.st2{clip-path:url(#SVGID_2_);}
	.st3{clip-path:url(#SVGID_4_);}
	.st4{fill:#C1C1C1;}
	.st5{fill:#BFBFBF;}
	.st6{fill:#BCBCBC;}
	.st7{fill:#D3D3D3;}
	.st8{fill:#B5B5B5;}
	.st9{fill:#B2B2B2;}
	.st10{fill:#9B9B9B;}
	.st11{fill:#8C8C8C;}
	.st12{fill:#AAAAAA;}
	.st13{fill:#969696;}
	.st14{fill:#A5A5A5;}
	.st15{fill:#CCCCCC;}
	.st16{fill:#A0A0A0;}
	.st17{fill:#AFAFAF;}
	.st18{fill:#C9C9C9;}
	.st19{fill:#CECECE;}
	.st20{fill:#C6C6C6;}
	.st21{fill:#B7B7B7;}
	.st22{fill:#ADADAD;}
	.st23{fill:#C4C4C4;}
	.st24{fill:#999999;}
	.st25{fill:#D8D8D8;}
	.st26{fill:#A3A3A3;}
	.st27{fill:#D1D1D1;}
	.st28{fill:#BABABA;}
	.st29{fill:#8E8E8E;}
	.st30{fill:#939393;}
	.st31{fill:#9E9E9E;}
	.st32{fill:#7F7F7F;}
	.st33{fill:#A8A8A8;}
	.st34{fill:#919191;}
	.st35{fill:#828282;}
	.st36{fill:#D6D6D6;}
	.st37{fill:#898989;}
	.st38{fill:#757575;}
	.st39{fill:#E2E2E2;}
	.st40{fill:#777777;}
	.st41{fill:#848484;}
	.st42{clip-path:url(#SVGID_6_);}
	.st43{fill:#FFCD00;}
	.st44{fill:url(#SVGID_7_);}
	.st45{clip-path:url(#SVGID_9_);}
	.st46{clip-path:url(#SVGID_11_);}
	.st47{clip-path:url(#SVGID_13_);}
	.st48{fill:url(#SVGID_14_);}
	.st49{fill:#FFFFFF;}
	.st50{fill:#F2F2F2;}
	.st51{fill:url(#SVGID_15_);}
	.st52{fill:url(#SVGID_16_);}
	.st53{fill:url(#SVGID_17_);}
	.st54{fill:url(#SVGID_18_);}
	.st55{fill:#FF6F00;}
	.st56{fill:url(#SVGID_19_);}
	.st57{fill:url(#SVGID_20_);}
	.st58{fill:url(#SVGID_21_);}
	.st59{fill:url(#SVGID_22_);}
	.st60{fill:url(#SVGID_23_);}
	.st61{fill:url(#SVGID_24_);}
	.st62{fill:url(#SVGID_25_);}
	.st63{fill:url(#SVGID_26_);}
	.st64{fill:url(#SVGID_27_);}
	.st65{fill:url(#SVGID_28_);}
	.st66{fill:none;stroke:#FFFFFF;stroke-miterlimit:10;}
	.st67{fill:url(#SVGID_29_);}
	.st68{fill:url(#SVGID_30_);}
	.st69{fill:url(#SVGID_31_);}
	.st70{fill:url(#SVGID_32_);}
	.st71{fill:none;stroke:#FF6F00;stroke-miterlimit:10;}
	.st72{fill:#00A195;}
	.st73{fill:#DC3545;}
	.st74{fill:#007BFF;}
	.st75{fill:#17A2B8;}
	.st76{fill:#0C515C;}
	.st77{fill:#FFC599;}
	.st78{fill:#FFE2CC;}
	.st79{fill:url(#SVGID_33_);}
	.st80{clip-path:url(#SVGID_35_);}
	.st81{fill:url(#SVGID_36_);}
	.st82{fill:url(#SVGID_39_);}
	.st83{clip-path:url(#SVGID_43_);}
	.st84{fill:#003E80;}
	.st85{fill:url(#SVGID_44_);}
	.st86{fill:url(#SVGID_45_);}
	.st87{opacity:0.3;fill:none;stroke:#00A195;stroke-miterlimit:10;}
	.st88{fill:url(#SVGID_48_);}
	.st89{fill:#666666;}
	.st90{fill:url(#SVGID_49_);}
</style>
<g>
	<path class="st49" d="M95,0L45.9,49.1L95,98.1V49.1V0z M80.8,49.1v15.3L65.5,49.1l15.3-15.3V49.1z"/>
	<path class="st50" d="M95,0v49.1v49.1l49.1-49.1L95,0z M109.1,49.1V33.8l15.3,15.3l-15.3,15.3V49.1z"/>
</g>
<g>
	<g>
		<path class="st49" d="M8.7,107.3c0.7,0.4,1.3,1,1.6,1.8v-2.3h5v14.3h-5v-2.3c-0.4,0.8-0.9,1.4-1.6,1.8c-0.7,0.4-1.6,0.7-2.6,0.7
			c-1.1,0-2.2-0.3-3.1-0.9c-0.9-0.6-1.6-1.4-2.2-2.6C0.3,116.8,0,115.5,0,114c0-1.5,0.3-2.8,0.8-3.9s1.3-2,2.2-2.5s1.9-0.9,3.1-0.9
			C7.1,106.7,7.9,106.9,8.7,107.3z M5.8,111.8c-0.5,0.5-0.7,1.2-0.7,2.2c0,0.9,0.2,1.7,0.7,2.2c0.5,0.5,1.1,0.8,1.9,0.8
			c0.7,0,1.4-0.3,1.9-0.8c0.5-0.5,0.7-1.3,0.7-2.2c0-0.9-0.2-1.6-0.7-2.1c-0.5-0.5-1.1-0.8-1.9-0.8C6.9,111.1,6.3,111.3,5.8,111.8z"
			/>
		<path class="st49" d="M29.3,108.2c1.3,1,2.1,2.5,2.4,4.3h-5.3c-0.1-0.5-0.3-0.9-0.7-1.1c-0.3-0.3-0.7-0.4-1.2-0.4
			c-0.6,0-1.1,0.3-1.5,0.8c-0.4,0.5-0.6,1.3-0.6,2.3c0,1,0.2,1.8,0.6,2.3c0.4,0.5,0.9,0.8,1.5,0.8c0.5,0,0.9-0.1,1.2-0.4
			c0.3-0.3,0.5-0.6,0.7-1.1h5.3c-0.3,1.8-1.1,3.3-2.4,4.3c-1.3,1-2.8,1.6-4.7,1.6c-1.4,0-2.7-0.3-3.8-0.9c-1.1-0.6-2-1.4-2.6-2.6
			c-0.6-1.1-0.9-2.4-0.9-3.9c0-1.5,0.3-2.8,0.9-3.9s1.5-2,2.6-2.5s2.4-0.9,3.8-0.9C26.5,106.7,28,107.2,29.3,108.2z"/>
		<path class="st49" d="M42.2,116.9v4.3h-2.1c-1.8,0-3.1-0.4-4.1-1.3c-1-0.9-1.5-2.3-1.5-4.3V111h-1.8v-4.2h1.8v-3.5h5v3.5h2.6v4.2
			h-2.6v4.6c0,0.4,0.1,0.8,0.3,0.9c0.2,0.2,0.5,0.3,1,0.3H42.2z"/>
		<path class="st49" d="M44.9,101c0.5-0.5,1.3-0.7,2.1-0.7c0.9,0,1.6,0.2,2.1,0.7c0.5,0.5,0.8,1.1,0.8,1.9c0,0.7-0.3,1.3-0.8,1.8
			c-0.5,0.5-1.2,0.7-2.1,0.7c-0.9,0-1.6-0.2-2.1-0.7c-0.5-0.5-0.8-1.1-0.8-1.8C44.1,102.1,44.4,101.5,44.9,101z M49.6,106.8v14.3h-5
			v-14.3H49.6z"/>
		<path class="st49" d="M59.3,116.3l2.7-9.5h5.3l-4.9,14.3h-6.2l-5-14.3h5.4L59.3,116.3z"/>
		<path class="st49" d="M82.6,114.9h-9.5c0.1,1.6,0.8,2.4,2.1,2.4c0.5,0,0.9-0.1,1.2-0.4c0.3-0.2,0.5-0.6,0.7-0.9h5.3
			c-0.2,1-0.6,1.9-1.3,2.7c-0.6,0.8-1.5,1.4-2.5,1.9c-1,0.5-2.1,0.7-3.2,0.7c-1.4,0-2.7-0.3-3.8-0.9c-1.1-0.6-2-1.4-2.6-2.6
			c-0.6-1.1-0.9-2.4-0.9-3.9c0-1.5,0.3-2.8,0.9-3.9s1.5-2,2.6-2.5s2.4-0.9,3.8-0.9c1.4,0,2.7,0.3,3.8,0.9c1.1,0.6,1.9,1.4,2.5,2.5
			c0.6,1.1,0.9,2.3,0.9,3.7C82.8,114.1,82.7,114.5,82.6,114.9z M77.1,111.2c-0.4-0.4-0.9-0.6-1.5-0.6c-0.7,0-1.2,0.2-1.6,0.6
			c-0.4,0.4-0.7,0.9-0.7,1.7h4.5C77.7,112.1,77.5,111.5,77.1,111.2z"/>
		<path class="st49" d="M99.5,108c1.1,0.9,1.8,2.1,2.1,3.7h-4.7c-0.1-0.5-0.4-0.9-0.7-1.1c-0.4-0.3-0.8-0.4-1.3-0.4
			c-0.4,0-0.7,0.1-0.9,0.2s-0.3,0.4-0.3,0.7c0,0.4,0.2,0.6,0.6,0.8c0.4,0.2,1.1,0.4,2.1,0.6c1.1,0.2,2,0.5,2.7,0.8
			c0.7,0.3,1.4,0.7,1.9,1.3c0.5,0.6,0.8,1.4,0.8,2.5c0,0.8-0.2,1.6-0.7,2.2c-0.5,0.6-1.1,1.2-2,1.5c-0.9,0.4-1.9,0.5-3.1,0.5
			c-2,0-3.6-0.4-4.8-1.3c-1.2-0.9-1.9-2.1-2.2-3.7h4.8c0.1,0.5,0.3,0.9,0.7,1.2s0.9,0.4,1.4,0.4c0.4,0,0.7-0.1,0.9-0.3
			s0.3-0.4,0.3-0.7c0-0.4-0.2-0.7-0.7-0.9c-0.4-0.2-1.1-0.4-2.1-0.6c-1.1-0.2-2-0.5-2.7-0.7c-0.7-0.3-1.3-0.7-1.8-1.3
			c-0.5-0.6-0.8-1.4-0.8-2.4c0-1.3,0.5-2.4,1.5-3.2c1-0.8,2.4-1.2,4.3-1.2C96.8,106.7,98.3,107.1,99.5,108z"/>
		<path class="st49" d="M115.2,108.2c1.3,1,2.1,2.5,2.4,4.3h-5.3c-0.1-0.5-0.3-0.9-0.7-1.1c-0.3-0.3-0.7-0.4-1.2-0.4
			c-0.6,0-1.1,0.3-1.5,0.8c-0.4,0.5-0.6,1.3-0.6,2.3c0,1,0.2,1.8,0.6,2.3c0.4,0.5,0.9,0.8,1.5,0.8c0.5,0,0.9-0.1,1.2-0.4
			c0.3-0.3,0.5-0.6,0.7-1.1h5.3c-0.3,1.8-1.1,3.3-2.4,4.3c-1.3,1-2.8,1.6-4.7,1.6c-1.4,0-2.7-0.3-3.8-0.9c-1.1-0.6-2-1.4-2.6-2.6
			c-0.6-1.1-0.9-2.4-0.9-3.9c0-1.5,0.3-2.8,0.9-3.9c0.6-1.1,1.5-2,2.6-2.5c1.1-0.6,2.4-0.9,3.8-0.9
			C112.4,106.7,113.9,107.2,115.2,108.2z"/>
		<path class="st49" d="M133.1,108.4c0.9,1.1,1.4,2.6,1.4,4.5v8.3h-5v-7.7c0-0.8-0.2-1.5-0.7-2c-0.4-0.5-1-0.7-1.8-0.7
			c-0.7,0-1.3,0.2-1.8,0.7s-0.7,1.2-0.7,2v7.6h-5v-18.9h5v7c0.4-0.8,1-1.4,1.8-1.8s1.7-0.7,2.8-0.7
			C130.8,106.7,132.1,107.3,133.1,108.4z"/>
		<path class="st49" d="M147.8,107.5c1.1,0.6,2,1.4,2.7,2.6c0.6,1.1,1,2.4,1,3.9c0,1.5-0.3,2.8-1,3.9c-0.6,1.1-1.5,2-2.7,2.6
			c-1.1,0.6-2.4,0.9-3.8,0.9c-1.4,0-2.7-0.3-3.9-0.9c-1.1-0.6-2-1.4-2.7-2.6c-0.6-1.1-1-2.4-1-3.9c0-1.5,0.3-2.8,1-3.9
			c0.6-1.1,1.5-2,2.7-2.5s2.4-0.9,3.9-0.9C145.3,106.7,146.6,107,147.8,107.5z M142.2,111.8c-0.5,0.5-0.7,1.3-0.7,2.2
			c0,1,0.2,1.7,0.7,2.2s1,0.8,1.7,0.8c0.7,0,1.3-0.3,1.7-0.8s0.7-1.3,0.7-2.2c0-1-0.2-1.7-0.7-2.2c-0.5-0.5-1-0.8-1.7-0.8
			C143.2,111,142.6,111.3,142.2,111.8z"/>
		<path class="st49" d="M164,107.5c1.1,0.6,2,1.4,2.7,2.6c0.6,1.1,1,2.4,1,3.9c0,1.5-0.3,2.8-1,3.9c-0.6,1.1-1.5,2-2.7,2.6
			c-1.1,0.6-2.4,0.9-3.8,0.9c-1.4,0-2.7-0.3-3.9-0.9c-1.1-0.6-2-1.4-2.7-2.6c-0.6-1.1-1-2.4-1-3.9c0-1.5,0.3-2.8,1-3.9
			c0.6-1.1,1.5-2,2.7-2.5s2.4-0.9,3.9-0.9C161.6,106.7,162.9,107,164,107.5z M158.4,111.8c-0.5,0.5-0.7,1.3-0.7,2.2
			c0,1,0.2,1.7,0.7,2.2s1,0.8,1.7,0.8c0.7,0,1.3-0.3,1.7-0.8s0.7-1.3,0.7-2.2c0-1-0.2-1.7-0.7-2.2c-0.5-0.5-1-0.8-1.7-0.8
			C159.5,111,158.9,111.3,158.4,111.8z"/>
		<path class="st49" d="M174.7,102.3v18.9h-5v-18.9H174.7z"/>
		<path class="st49" d="M187.5,108c1.1,0.9,1.8,2.1,2.1,3.7h-4.7c-0.1-0.5-0.4-0.9-0.7-1.1s-0.8-0.4-1.3-0.4c-0.4,0-0.7,0.1-0.9,0.2
			c-0.2,0.2-0.3,0.4-0.3,0.7c0,0.4,0.2,0.6,0.6,0.8c0.4,0.2,1.1,0.4,2.1,0.6c1.1,0.2,2,0.5,2.7,0.8c0.7,0.3,1.4,0.7,1.9,1.3
			c0.5,0.6,0.8,1.4,0.8,2.5c0,0.8-0.2,1.6-0.7,2.2c-0.5,0.6-1.1,1.2-2,1.5c-0.9,0.4-1.9,0.5-3.1,0.5c-2,0-3.6-0.4-4.8-1.3
			c-1.2-0.9-1.9-2.1-2.2-3.7h4.8c0.1,0.5,0.3,0.9,0.7,1.2s0.9,0.4,1.4,0.4c0.4,0,0.7-0.1,0.9-0.3c0.2-0.2,0.3-0.4,0.3-0.7
			c0-0.4-0.2-0.7-0.7-0.9c-0.4-0.2-1.1-0.4-2.1-0.6c-1.1-0.2-2-0.5-2.7-0.7c-0.7-0.3-1.3-0.7-1.8-1.3c-0.5-0.6-0.8-1.4-0.8-2.4
			c0-1.3,0.5-2.4,1.5-3.2s2.4-1.2,4.3-1.2C184.8,106.7,186.3,107.1,187.5,108z"/>
	</g>
</g>
</svg>
